<mxfile host="Electron" modified="2023-10-14T03:23:56.870Z" agent="Mozilla/5.0 (Windows NT 10.0; Win64; x64) AppleWebKit/537.36 (KHTML, like Gecko) draw.io/22.0.2 Chrome/114.0.5735.289 Electron/25.8.4 Safari/537.36" etag="znGeuuOrYUtfgeMD-jft" version="22.0.2" type="device">
  <diagram name="Página-1" id="JGfTU28RJ-UcixZ5ag7b">
    <mxGraphModel dx="1388" dy="941" grid="0" gridSize="10" guides="1" tooltips="1" connect="1" arrows="1" fold="1" page="1" pageScale="1.2" pageWidth="400" pageHeight="400" background="#ffffff" math="0" shadow="0">
      <root>
        <mxCell id="0" />
        <mxCell id="1" parent="0" />
        <mxCell id="SHFAngRMwkovwHlTtLld-5" value="" style="edgeStyle=orthogonalEdgeStyle;rounded=0;orthogonalLoop=1;jettySize=auto;html=1;strokeColor=#182E3E;fontColor=#1A1A1A;" edge="1" parent="1" source="SHFAngRMwkovwHlTtLld-1" target="SHFAngRMwkovwHlTtLld-4">
          <mxGeometry relative="1" as="geometry" />
        </mxCell>
        <mxCell id="SHFAngRMwkovwHlTtLld-1" value="" style="shape=sumEllipse;perimeter=ellipsePerimeter;whiteSpace=wrap;html=1;backgroundOutline=1;labelBackgroundColor=none;fillColor=#FFFFFF;strokeColor=#000000;fontColor=#1A1A1A;" vertex="1" parent="1">
          <mxGeometry x="119" y="123.5" width="43" height="43" as="geometry" />
        </mxCell>
        <mxCell id="SHFAngRMwkovwHlTtLld-7" value="" style="edgeStyle=orthogonalEdgeStyle;rounded=0;orthogonalLoop=1;jettySize=auto;html=1;strokeColor=#182E3E;fontColor=#1A1A1A;entryX=0;entryY=0.5;entryDx=0;entryDy=0;" edge="1" parent="1" source="SHFAngRMwkovwHlTtLld-8" target="SHFAngRMwkovwHlTtLld-23">
          <mxGeometry relative="1" as="geometry" />
        </mxCell>
        <mxCell id="SHFAngRMwkovwHlTtLld-4" value="&lt;h2&gt;&lt;font style=&quot;font-size: 14px;&quot;&gt;Controlador Actitud&lt;/font&gt;&lt;/h2&gt;" style="whiteSpace=wrap;html=1;fillColor=#FFFFFF;strokeColor=#000000;fontColor=#1A1A1A;labelBackgroundColor=none;rounded=0;" vertex="1" parent="1">
          <mxGeometry x="204" y="118.5" width="87" height="53" as="geometry" />
        </mxCell>
        <mxCell id="SHFAngRMwkovwHlTtLld-52" style="edgeStyle=orthogonalEdgeStyle;rounded=0;orthogonalLoop=1;jettySize=auto;html=1;exitX=1;exitY=0.5;exitDx=0;exitDy=0;entryX=0.5;entryY=1;entryDx=0;entryDy=0;strokeColor=#182E3E;fontColor=#1A1A1A;" edge="1" parent="1" source="SHFAngRMwkovwHlTtLld-6" target="SHFAngRMwkovwHlTtLld-1">
          <mxGeometry relative="1" as="geometry">
            <Array as="points">
              <mxPoint x="872" y="145" />
              <mxPoint x="872" y="362" />
              <mxPoint x="141" y="362" />
            </Array>
          </mxGeometry>
        </mxCell>
        <mxCell id="SHFAngRMwkovwHlTtLld-57" style="edgeStyle=orthogonalEdgeStyle;rounded=0;orthogonalLoop=1;jettySize=auto;html=1;strokeColor=#182E3E;fontColor=#1A1A1A;entryX=0.5;entryY=1;entryDx=0;entryDy=0;exitX=0.5;exitY=1;exitDx=0;exitDy=0;" edge="1" parent="1" source="SHFAngRMwkovwHlTtLld-6" target="SHFAngRMwkovwHlTtLld-26">
          <mxGeometry relative="1" as="geometry">
            <mxPoint x="402.5" y="290.45999999999987" as="targetPoint" />
            <mxPoint x="801.5" y="180.21" as="sourcePoint" />
            <Array as="points">
              <mxPoint x="802" y="324" />
              <mxPoint x="403" y="324" />
            </Array>
          </mxGeometry>
        </mxCell>
        <mxCell id="SHFAngRMwkovwHlTtLld-6" value="&lt;h2&gt;&lt;font style=&quot;font-size: 14px;&quot;&gt;Dinámica de EyasSat&lt;/font&gt;&lt;/h2&gt;" style="whiteSpace=wrap;html=1;fillColor=#FFFFFF;strokeColor=#000000;fontColor=#1A1A1A;labelBackgroundColor=none;" vertex="1" parent="1">
          <mxGeometry x="751" y="117.75" width="101" height="54.5" as="geometry" />
        </mxCell>
        <mxCell id="SHFAngRMwkovwHlTtLld-9" value="" style="edgeStyle=orthogonalEdgeStyle;rounded=0;orthogonalLoop=1;jettySize=auto;html=1;strokeColor=#182E3E;fontColor=#1A1A1A;" edge="1" parent="1" source="SHFAngRMwkovwHlTtLld-4" target="SHFAngRMwkovwHlTtLld-8">
          <mxGeometry relative="1" as="geometry">
            <mxPoint x="392" y="145" as="sourcePoint" />
            <mxPoint x="560" y="145" as="targetPoint" />
          </mxGeometry>
        </mxCell>
        <mxCell id="SHFAngRMwkovwHlTtLld-31" style="edgeStyle=orthogonalEdgeStyle;rounded=0;orthogonalLoop=1;jettySize=auto;html=1;entryX=0.5;entryY=0;entryDx=0;entryDy=0;strokeColor=#182E3E;fontColor=#1A1A1A;" edge="1" parent="1" source="SHFAngRMwkovwHlTtLld-8" target="SHFAngRMwkovwHlTtLld-26">
          <mxGeometry relative="1" as="geometry" />
        </mxCell>
        <mxCell id="SHFAngRMwkovwHlTtLld-8" value="&lt;h2&gt;&lt;font style=&quot;font-size: 14px;&quot;&gt;Modelo RW&lt;/font&gt;&lt;/h2&gt;" style="whiteSpace=wrap;html=1;fillColor=#FFFFFF;strokeColor=#000000;fontColor=#1A1A1A;labelBackgroundColor=none;" vertex="1" parent="1">
          <mxGeometry x="357" y="117.5" width="91" height="54" as="geometry" />
        </mxCell>
        <mxCell id="SHFAngRMwkovwHlTtLld-10" value="&lt;font style=&quot;font-size: 13px;&quot;&gt;&lt;b&gt;Voltaje&lt;/b&gt;&lt;/font&gt;" style="text;html=1;align=center;verticalAlign=middle;resizable=0;points=[];autosize=1;strokeColor=none;fillColor=none;fontColor=#1A1A1A;" vertex="1" parent="1">
          <mxGeometry x="295" y="111" width="60" height="28" as="geometry" />
        </mxCell>
        <mxCell id="SHFAngRMwkovwHlTtLld-11" value="&lt;font style=&quot;font-size: 13px;&quot;&gt;&lt;b&gt;Torque RW&lt;/b&gt;&lt;/font&gt;" style="text;html=1;align=center;verticalAlign=middle;resizable=0;points=[];autosize=1;strokeColor=none;fillColor=none;fontColor=#1A1A1A;" vertex="1" parent="1">
          <mxGeometry x="478" y="121.09" width="86" height="28" as="geometry" />
        </mxCell>
        <mxCell id="SHFAngRMwkovwHlTtLld-13" value="&lt;font style=&quot;font-size: 13px;&quot;&gt;&lt;b&gt;Error&lt;/b&gt;&lt;/font&gt;" style="text;html=1;align=center;verticalAlign=middle;resizable=0;points=[];autosize=1;strokeColor=none;fillColor=none;fontColor=#1A1A1A;" vertex="1" parent="1">
          <mxGeometry x="153" y="108" width="50" height="28" as="geometry" />
        </mxCell>
        <mxCell id="SHFAngRMwkovwHlTtLld-18" value="&lt;b&gt;Yaw&lt;/b&gt;" style="text;html=1;align=center;verticalAlign=middle;resizable=0;points=[];autosize=1;strokeColor=none;fillColor=none;fontColor=#1A1A1A;" vertex="1" parent="1">
          <mxGeometry x="469" y="340" width="41" height="26" as="geometry" />
        </mxCell>
        <mxCell id="SHFAngRMwkovwHlTtLld-24" value="" style="edgeStyle=orthogonalEdgeStyle;rounded=0;orthogonalLoop=1;jettySize=auto;html=1;strokeColor=#182E3E;fontColor=#1A1A1A;" edge="1" parent="1" source="SHFAngRMwkovwHlTtLld-23" target="SHFAngRMwkovwHlTtLld-6">
          <mxGeometry relative="1" as="geometry" />
        </mxCell>
        <mxCell id="SHFAngRMwkovwHlTtLld-23" value="" style="shape=sumEllipse;perimeter=ellipsePerimeter;whiteSpace=wrap;html=1;backgroundOutline=1;labelBackgroundColor=none;fillColor=#FFFFFF;strokeColor=#000000;fontColor=#1A1A1A;" vertex="1" parent="1">
          <mxGeometry x="663" y="123.5" width="43" height="43" as="geometry" />
        </mxCell>
        <mxCell id="SHFAngRMwkovwHlTtLld-33" style="edgeStyle=orthogonalEdgeStyle;rounded=0;orthogonalLoop=1;jettySize=auto;html=1;entryX=0;entryY=0.5;entryDx=0;entryDy=0;strokeColor=#182E3E;fontColor=#1A1A1A;" edge="1" parent="1" source="SHFAngRMwkovwHlTtLld-26" target="SHFAngRMwkovwHlTtLld-29">
          <mxGeometry relative="1" as="geometry" />
        </mxCell>
        <mxCell id="SHFAngRMwkovwHlTtLld-26" value="" style="shape=sumEllipse;perimeter=ellipsePerimeter;whiteSpace=wrap;html=1;backgroundOutline=1;labelBackgroundColor=none;fillColor=#FFFFFF;strokeColor=#000000;fontColor=#1A1A1A;" vertex="1" parent="1">
          <mxGeometry x="381" y="239.5" width="43" height="43" as="geometry" />
        </mxCell>
        <mxCell id="SHFAngRMwkovwHlTtLld-50" value="" style="edgeStyle=orthogonalEdgeStyle;rounded=0;orthogonalLoop=1;jettySize=auto;html=1;strokeColor=#182E3E;fontColor=#1A1A1A;" edge="1" parent="1" source="SHFAngRMwkovwHlTtLld-29" target="SHFAngRMwkovwHlTtLld-44">
          <mxGeometry relative="1" as="geometry" />
        </mxCell>
        <mxCell id="SHFAngRMwkovwHlTtLld-29" value="&lt;h2&gt;&lt;span style=&quot;font-size: 14px;&quot;&gt;Controlador desaturación&lt;/span&gt;&lt;/h2&gt;" style="whiteSpace=wrap;html=1;fillColor=#FFFFFF;strokeColor=#000000;fontColor=#1A1A1A;labelBackgroundColor=none;" vertex="1" parent="1">
          <mxGeometry x="469" y="234" width="91" height="54" as="geometry" />
        </mxCell>
        <mxCell id="SHFAngRMwkovwHlTtLld-37" value="&lt;font style=&quot;font-size: 15px;&quot;&gt;&lt;b&gt;+&lt;/b&gt;&lt;/font&gt;" style="text;html=1;align=center;verticalAlign=middle;resizable=0;points=[];autosize=1;strokeColor=none;fillColor=none;fontColor=#1A1A1A;" vertex="1" parent="1">
          <mxGeometry x="389" y="234" width="27" height="30" as="geometry" />
        </mxCell>
        <mxCell id="SHFAngRMwkovwHlTtLld-38" value="&lt;font style=&quot;font-size: 15px;&quot;&gt;&lt;b&gt;-&lt;/b&gt;&lt;/font&gt;" style="text;html=1;align=center;verticalAlign=middle;resizable=0;points=[];autosize=1;strokeColor=none;fillColor=none;fontColor=#1A1A1A;" vertex="1" parent="1">
          <mxGeometry x="391" y="257.16999999999996" width="23" height="30" as="geometry" />
        </mxCell>
        <mxCell id="SHFAngRMwkovwHlTtLld-42" style="edgeStyle=orthogonalEdgeStyle;rounded=0;orthogonalLoop=1;jettySize=auto;html=1;entryX=0;entryY=0.5;entryDx=0;entryDy=0;strokeColor=#182E3E;fontColor=#1A1A1A;" edge="1" parent="1" source="SHFAngRMwkovwHlTtLld-40" target="SHFAngRMwkovwHlTtLld-1">
          <mxGeometry relative="1" as="geometry" />
        </mxCell>
        <mxCell id="SHFAngRMwkovwHlTtLld-40" value="" style="shape=image;verticalLabelPosition=bottom;labelBackgroundColor=default;verticalAlign=top;aspect=fixed;imageAspect=0;image=data:image/png,iVBORw0KGgoAAAANSUhEUgAAAJEAAACQCAMAAAA/Wnm0AAAAAXNSR0IArs4c6QAAAARnQU1BAACxjwv8YQUAAABjUExURQAAAAAAAAAAAAAAAAAAAAAAAAAAAAAAAAAAAAAAAAAAAAAAAAAAAAAAAAAAAAAAAAAAAAAAAAAAAAAAAAAAAAAAAAAAAAAAAAAAAAAAAAAAAAAAAAAAAAAAAAAAAAAAAAAAAGZodN4AAAAgdFJOUwAIEBggKDA4QEhQWGBocHiAh4+Xn6evt7/Hz9ff5+/3v+H4wgAAAAlwSFlzAAAXEQAAFxEByibzPwAABdNJREFUeF7tmulyozoQhY1X7MQevOMV3v8pB53TRi0QGVVdm1C39P1JmjjQ9HLUUjKKRCKRSCQSiUQivbPNDWOxhsCzrHiIMQSmxqHyJNYQ+IJHG7GGwA4epWINgatxqEjEGgBJYTy6ijUEFsahcifWENjAo2+xhsAJHk3FGgJ349BTjCEwQYiGpI8rePRHrCEwPH3M4dGA9HH0m/q4OFRtdT1OxCRzhGgv1ijNQC+z0uSMZ1eD0EKugIY+UpxK5yMfYoWxDDgpOuDSTCyuumX5JeYH+cMnkbVcNNzMBauP7LwyE/NzbKunXDap+VKhVtUxLlh9pDr14NH4Wm7NVyZFCTQ9sA7Qw/Ig5gcZszIYpBzfgwwXlmJV0OcePBLokYoRG1A1OwWzv2mJnaUigA7UzXfEJ/pb5pgTu+2gPuoc0efe5rcEj1PL6jds/XwWVm8Lb4rHqWV1D3suloGCVCvmp2EAVNkgi878yKz1dgbQbCSqz1kswI+I8V7S7Iy75/s6SdyZlSsxX1l0BBpRu4nxTlK+q8EeekgZ2ZRwtbMeVmAfUA8nb2MMfy473N7qIR1QZcTZwykaXFEa/h4S49DVJGtdfWPVjg4oPYY+OilCGJ9vn3HN0nDlm1dRstqCkKnZhwdHzhqG5j+K8TaweEngv9SEKuu61RoeHOlpiU6/e15DR/m6ZWmeptWHaqj1EatK8W41wuTsOzEzRVXVu1gV6PRCDAAJfff+NnmYu/oOFqjY9nmUJzUsjcbmdwsdtHeA4riL4dAcRXhwhNlSQBobs9F3fr2fayfn2/zxzPPWXuUry/Pikm89kZiyo7ntcsdlemSvcWOk9HFmgvZwWn+FiJcFG3Ymm6eGYM0PdqPjius0y6xUG9xQNWPU0kdccBpNtiYiqyuuQhW69hPZT+T8qRMFvrTCrVHWka1sdLpyGsOSLqsEwsb3r3bCdoelOzlFFPcmiPyAnmRWVZ74VsxZ5g5eXNbq7ufBkQ0ZHHqq+xmH7otRgpZcmBe6rUZLs8FTorpEpiWLCLKjbxV4rLNrrUn4tq/C4caolglE8Kn7bFGU+GMJsjKtOmZnSsx0jtUWOHR9HSVAX5q7Bty4Y+1m2h5SBI4+shju7uy4PKHKzY+eaSEVYpS/brWpcaiofwse6eY1IHAdgzulqjzRJTSBHKxv8JO7/3iU2xN3/RNwD/s0fLKZNWSmS+PmzNsT90BrmEKefHMJroPfgBuYm2cgQCmrERS3d+MsC5MYbeY4eKh8OmdcU87ZmYEri61uaQU3MDY1FhamfX1kXjerodXBDZItVaPFsfNAmy3q2+VCbWo1SVCYrTUIKuj77ZrJljnSPHzq/wKpKXwZRTqlipI1blu0xk98yBmcPczWu/zl1iU/rD0JUaBXfN2LCnkkSZputhfzfXW31q04lP3wwjWe+bEDFItvk9taInLPqAfVC/qLa/AfHhkJMRy4Lgr3oz/U0MCgicvRx59AT3onbwRvh9Wq+yQVihV01ML50aMxTdArvlhSFTokowZuh+y2OD+qCbcTtIAvBqxEMbrgcdC/3DYE/+GRE4IvltCpbjEmqP6gTXtrfuwCveKdJXwxanU5ch7S0dInATKBDvDPEki8c4t9S7GR84COlk+GyITW5QZYI5UEJdVrPt2XpD4GdHT4P2awofy3xOxhE7owHjaiiZwH/SsB58cAmfipfLF1KQ98XupVCeTcP9E2oD76loYGkNyuWYKbkPs5k2Xy2VpFoI8BHf062wuIJk7gu26ZyPoqHFqyQ9XrmGgd+MmQaEJyu0WCkzs4eiJOfQxZ+PnJjv2BZoxNVse0a1hkp2v5yM9rryxD9bw7/iaT1BDi+38Dqhekjz3BOTykjPoCR2hD+scmJi2o93sC/ePdMvwW0LLmnvsXmUA+86FU0T7n1vwcMj32AtYEOV8YBKamb/lPWt87sz7+8SQSiUQikUgkEolEIpFIJBKJRCKRSCTyP2A0+gvoQtCMheuMvQAAAABJRU5ErkJggg==;" vertex="1" parent="1">
          <mxGeometry x="42" y="121.09" width="47.16" height="46.83" as="geometry" />
        </mxCell>
        <mxCell id="SHFAngRMwkovwHlTtLld-43" value="" style="shape=image;verticalLabelPosition=bottom;labelBackgroundColor=default;verticalAlign=top;aspect=fixed;imageAspect=0;image=data:image/png,iVBORw0KGgoAAAANSUhEUgAAAGoAAACJCAMAAADzL12JAAAAAXNSR0IArs4c6QAAAARnQU1BAACxjwv8YQUAAABjUExURQAAAAAAAAAAAAAAAAAAAAAAAAAAAAAAAAAAAAAAAAAAAAAAAAAAAAAAAAAAAAAAAAAAAAAAAAAAAAAAAAAAAAAAAAAAAAAAAAAAAAAAAAAAAAAAAAAAAAAAAAAAAAAAAAAAAGZodN4AAAAgdFJOUwAIEBggKDA4QEhQWGBocHiAh4+Xn6evt7/Hz9ff5+/3v+H4wgAAAAlwSFlzAAAXEQAAFxEByibzPwAAA0BJREFUaEPtmN12qjAQhbVif9S21KpVa4X3f8qSPRtMJkE9K+nFWWu+KyZINoSdmZGJYRiGYRj/HVW92zuatt1z6K94bgfKSB3cVM0DI5+qxjlHEalHmWvFUDH/ltNFpNYy1xdDDRexhNT0LHM1Uw5ofnC6hNQKM3UsOaD5wtkSUsOL33JA84mzBaRoio7zyArWOFtAiqZwvHBIUUoKpthisnbDMUUpKZiikr1z5piilJQzxX7ygdnaZw6GFJKCKZaTJ8zWfnI0pJCUM4Vz3gnT/XA0pIwUTOGeRfZO+yTDIWWklv38THQfMhxSRmrfzfHtDpgITxhVhFKrDZy0S1tolLmb4w2HG3fYtnMEIb7U4ojAsU+u9hjOFM0Mhwu5vkYQcpGaDfnS0TzK+XuYuvKw43HXPnRgNRWD1JOUk4GT3OU9wBQLBjtc3VYMPXqpl+5uTtv3Rc3FHq8FMc4UP306Z9l6Z+hBqU6p4dmKCzlWCyJgijWDyYOs4IGhh0idm/Y0vJwZl3KkFkSgfFws556xI15BkeoWzzv1KkPpTBYBU3gPwatfGV6gVOObeyZjd+5rmMKbuMLFiaspFWYSeVvppBnhFizoM/muo9aTUqGz6UJG14EpAre+4+K49RQp9QCscIyug98GDoJ4ovUUKbWwvC9GV4EpVHaVsh8170kpbkNGV0HOUxmPi6Jbz1wptKxqD7Hs63STKQVnR76Wsq+b90wprFXkNZZ9lW7ypGCKOFmy7KvWM08KpogTGMu+uoc8KZgiUbCZA8K+IUsKpkgVXJb98HmzpGCKRBHsy36YhHKkYAqVPgnLfrCCOVJYJrYvCs4QFIwcKZiib19CWPaD5JghhQo6tC8Kln2/xcuQwqVD+6Jg2fcTcYYUTDHWmbLs+ztB/i0fGZG7pGCKph6DH0y85l32taptbxhM9vgX6OcbeLuOH5nCism8crURZFt1i0vX1n/YCCom9/rIliHykm/Tl81KiliXhL2cOZWPQR0j39sA3XwTSRiLDW/fceCDPazhLOFYjzbu/yYV/pqG9759OhJ/XoQVnXYLmSD8NVerYkhSn0cNwzAMwzAMwzAMwzAMwzAMwzAMw/gbJpNfRpKt2rScd/wAAAAASUVORK5CYII=;" vertex="1" parent="1">
          <mxGeometry x="432" y="234.17" width="27.73" height="35.83" as="geometry" />
        </mxCell>
        <mxCell id="SHFAngRMwkovwHlTtLld-51" style="edgeStyle=orthogonalEdgeStyle;rounded=0;orthogonalLoop=1;jettySize=auto;html=1;entryX=0.5;entryY=1;entryDx=0;entryDy=0;strokeColor=#182E3E;fontColor=#1A1A1A;" edge="1" parent="1" source="SHFAngRMwkovwHlTtLld-44" target="SHFAngRMwkovwHlTtLld-23">
          <mxGeometry relative="1" as="geometry" />
        </mxCell>
        <mxCell id="SHFAngRMwkovwHlTtLld-44" value="&lt;h2&gt;&lt;span style=&quot;font-size: 14px;&quot;&gt;Modelo Magnetorquers&lt;/span&gt;&lt;/h2&gt;" style="whiteSpace=wrap;html=1;fillColor=#FFFFFF;strokeColor=#000000;fontColor=#1A1A1A;labelBackgroundColor=none;" vertex="1" parent="1">
          <mxGeometry x="618.5" y="234.17" width="132" height="53" as="geometry" />
        </mxCell>
        <mxCell id="SHFAngRMwkovwHlTtLld-49" style="edgeStyle=orthogonalEdgeStyle;rounded=0;orthogonalLoop=1;jettySize=auto;html=1;strokeColor=#182E3E;fontColor=#1A1A1A;" edge="1" parent="1" source="SHFAngRMwkovwHlTtLld-48" target="SHFAngRMwkovwHlTtLld-23">
          <mxGeometry relative="1" as="geometry" />
        </mxCell>
        <mxCell id="SHFAngRMwkovwHlTtLld-48" value="&lt;h2&gt;&lt;span style=&quot;font-size: 14px;&quot;&gt;Perturbaciones&lt;/span&gt;&lt;/h2&gt;" style="whiteSpace=wrap;html=1;fillColor=#FFFFFF;strokeColor=#000000;fontColor=#1A1A1A;labelBackgroundColor=none;" vertex="1" parent="1">
          <mxGeometry x="618.5" y="33" width="132" height="53" as="geometry" />
        </mxCell>
        <mxCell id="SHFAngRMwkovwHlTtLld-53" value="" style="shape=image;verticalLabelPosition=bottom;labelBackgroundColor=default;verticalAlign=top;aspect=fixed;imageAspect=0;image=data:image/png,iVBORw0KGgoAAAANSUhEUgAAAIQAAABbCAMAAACF8t1vAAAAAXNSR0IArs4c6QAAAARnQU1BAACxjwv8YQUAAABjUExURQAAAAAAAAAAAAAAAAAAAAAAAAAAAAAAAAAAAAAAAAAAAAAAAAAAAAAAAAAAAAAAAAAAAAAAAAAAAAAAAAAAAAAAAAAAAAAAAAAAAAAAAAAAAAAAAAAAAAAAAAAAAAAAAAAAAGZodN4AAAAgdFJOUwAIEBggKDA4QEhQWGBocHiAh4+Xn6evt7/Hz9ff5+/3v+H4wgAAAAlwSFlzAAAXEQAAFxEByibzPwAAAuVJREFUaEPtmdty4jAQRAEHMLdgrjGX2P7/r1ype0BjeyubB8aitnSetpWtaCyNWqPJKJFIJBKJRCKR6LErPWNRkbg3jruISHz4GJqjqEgsEcSnqEjsEcRMVCRKH0MdNy/HtQ+iFBWJmY+h2YuKxCeCWIqKxAlBZKIi8Q5WNcFCnERF4i2saocg5qIi8Q5WNYJVXUTYMz2UTVVu2x/dsaq8AFYLMzliOvfVHzICNhh7WpX8J6PbLP/mr3ecZQhw1mdcV0gj/1xj64VcBj03P/At4rkSJid2637xfb+iQzdbGXXQqsLarKGbQuRLmVXN0SfbF6ZQlVzXqqbQNkGMZvx6OpOqHQoMqP2pMGAThMAg1EpgabRVMTNNg2De7UQ58OFXER5u2EaUCZfOFP2qimGuRFnAclJZEQ+DnpIbpg/xq5ljBpUCHatyMIiWqb4YlpPqtkIaViIAw5qIsuCMGUIKdK3KgZu9EWECTSBcDDm0MlCxccuKk2dBrXXPqiROy8cxU0K5ArdHFw9jjFg+Qrop0bcqbpBpsYcXRrMW9bitDqIAXuitTH0xGebsWVUIyoE4WyMvhtd2LcrBxsRUlIdrY/kk5Fn40ap88WPbJeCHhw3nSdAJMEYhavoQYnEXDgetSpcOWCvbDhodOUyKtddWlflLtrJtEnRXgrah7ioMGD+NeUGGHEACKKvCiW1ZlwG0hZuoXg8VP66tn+cT1FX1w6xWXgVjYgwLUXbwjF7lZmj3UPEmrSzLOgHZ71KTUWirWlIYvYPbLBjFzX8wi94vP5yzCL9rAzdkwdqquezX7AmcNgfah/vnYF3EjI+bPtcB0iEwO3JPNPVx+MbZvDg/9sBlQlksLCupn2DRa1lD/QLaZ+QeKi+SyD1UuFPkHiofgMP1UP/KAkHoxkQEWPRG/nMPqyrLNsQvwB0SeqhR4CMnWdWjqhr04uzzDlbFB6B1df8P+ACMbFVZ7on8R+HE/8po9Ae8e2qww217sQAAAABJRU5ErkJggg==;" vertex="1" parent="1">
          <mxGeometry x="497.09000000000003" y="337" width="34.82" height="24" as="geometry" />
        </mxCell>
        <mxCell id="SHFAngRMwkovwHlTtLld-54" value="&lt;font style=&quot;font-size: 13px;&quot;&gt;&lt;b&gt;Voltaje&lt;/b&gt;&lt;/font&gt;" style="text;html=1;align=center;verticalAlign=middle;resizable=0;points=[];autosize=1;strokeColor=none;fillColor=none;fontColor=#1A1A1A;" vertex="1" parent="1">
          <mxGeometry x="560" y="232" width="60" height="28" as="geometry" />
        </mxCell>
        <mxCell id="SHFAngRMwkovwHlTtLld-56" value="&lt;font style=&quot;font-size: 13px;&quot;&gt;&lt;b&gt;Torque Mgt&lt;/b&gt;&lt;/font&gt;" style="text;html=1;align=center;verticalAlign=middle;resizable=0;points=[];autosize=1;strokeColor=none;fillColor=none;fontColor=#1A1A1A;" vertex="1" parent="1">
          <mxGeometry x="681" y="191" width="88" height="28" as="geometry" />
        </mxCell>
        <mxCell id="SHFAngRMwkovwHlTtLld-58" value="&lt;font style=&quot;font-size: 15px;&quot;&gt;&lt;b&gt;+&lt;/b&gt;&lt;/font&gt;" style="text;html=1;align=center;verticalAlign=middle;resizable=0;points=[];autosize=1;strokeColor=none;fillColor=none;fontColor=#1A1A1A;" vertex="1" parent="1">
          <mxGeometry x="113" y="129.5" width="27" height="30" as="geometry" />
        </mxCell>
        <mxCell id="SHFAngRMwkovwHlTtLld-59" value="&lt;font style=&quot;font-size: 15px;&quot;&gt;&lt;b&gt;-&lt;/b&gt;&lt;/font&gt;" style="text;html=1;align=center;verticalAlign=middle;resizable=0;points=[];autosize=1;strokeColor=none;fillColor=none;fontColor=#1A1A1A;" vertex="1" parent="1">
          <mxGeometry x="127" y="139" width="23" height="30" as="geometry" />
        </mxCell>
        <mxCell id="SHFAngRMwkovwHlTtLld-60" value="" style="shape=image;verticalLabelPosition=bottom;labelBackgroundColor=default;verticalAlign=top;aspect=fixed;imageAspect=0;image=data:image/png,iVBORw0KGgoAAAANSUhEUgAAAWUAAACICAMAAAAI9gphAAAAAXNSR0IArs4c6QAAAARnQU1BAACxjwv8YQUAAABjUExURQAAAAAAAAAAAAAAAAAAAAAAAAAAAAAAAAAAAAAAAAAAAAAAAAAAAAAAAAAAAAAAAAAAAAAAAAAAAAAAAAAAAAAAAAAAAAAAAAAAAAAAAAAAAAAAAAAAAAAAAAAAAAAAAAAAAGZodN4AAAAgdFJOUwAIEBggKDA4QEhQWGBocHiAh4+Xn6evt7/Hz9ff5+/3v+H4wgAAAAlwSFlzAAAXEQAAFxEByibzPwAABgZJREFUeF7tnNt24koMRDEh4ABJCCTcL/7/rzytkmxLNlmsOdgvce2HmekmYVbK6mpJ3WRECCGEEEIIIYQQQgghhBCizFdgvd/vVzZFOudYVHzYFOmc1f5iIhdTmyJ98KUiX21I+uEGlbc2Iv1whsq05X5RZ6Yt90oGkWnL/TKFyrTlfvmAyrTlfvmGyrTlfjmJyLTlfhkjlGnL/TKHymwV9csKKuc2Iv2wF5FvmY1IP1xF5b0NSD9oTVLa8nK9vx5+Psc2JB2hNYna8lL7RkVxecOYdAVqEtjyxJ2bcDfsFoSv2PKsOjQRjtwOO0RrkmTLi1sK6fXy4wcTRbG0LyAdoDVJPnpLf25eZOYdM8UXXiadgEO/WzZNkfyuM5k6B0vuDkFNsp8kd64sYgeVmUF3R4aT1Z+UXXzaTNkJ3dmIPI/WJImNTSRU5W8bkefRmqQoTi5xU8dgk647LG+7vdpYQFe/mNuIPI+V1D5t0yPtgq2MznhRRS++0MsxdbYReR6tSeL5tVo1N7/uWEPRa+hZbDHXLLCz3DOz2YpXe0Hw7zZNY+f5MiyxqQFwgKJrGyno6hcTG5XMMOs47z5QkCv6RopT+UXScbcsXEPqZFN/H61JYpdzgqmWLU+/Q8tO2VZh+q3PJnH0KSDWSq1yttX/MHEcTjdKAzRexVhi7o4tj1Whw14oJa+0GltzOqwL6Y6kytJGQmZfVleafx/d6LwKZeV3L9Jg2OUx7Otaha4OVbSKvDkXKS0+dEQWmBrUdTFVIf7ImkE3bVmA/kcbJJ1hErW1IEqD01j53lZ5WP0+VTTckPvFlgW075wjaFhW1owyMiiqDzHObdLEJQT8X0cVjVcxfrVlSz5c4a3HLNUEOtVe0bIT5ecyeZPhbHyCBmPtAYLa8sJGnle84q0EzlztY58y8oqmUL6Ijfg52QkO9u+BoDVJzJa1VXTPlhHlwUqiynjdKSqh/CEu41TFOczA7vBqVhXWr7rA3Wu24qghH2k4Bqp1tzBSKJ8yeWjuyUi8D6x2t5okhJYcsv5yToJn4vMRzbarnQxdplpRCeU59td6TkrBmOv9fbT5FuMW5lqZiBdEI9c/EmTbFxvYZlcrukNgR5XFooZUjwhak/i9qbRqU2Jzdv6MZ3KzgTBGHlj7jWYsNoB/JDMJKstzOIeMZgBoOhvvXeicSrdKmtS9fFxz9o8E6bPf2WRcqZz8RTw6qCxvPrgjGG3wxB9bz/ygvOx2rvODV+pxhqi/+pMsmShVtlAOKstqiCtnAOgKbyRtSCSK82I0l16mb6+FmmS8QhZ3CN+MKbNyC+Wgsmyfg/skllZ59e4F1KsNv1FpITfP8/x9td7rMthEj4VPq+5lKKPvbCrLnLuPMBB0o2s0buz6lnANXqLPxHH5apYu6OTrZBnKMG9VWd55aFlcAvlv69qFVt2Jk7fcsvKuSJ7SAtshVJaw1ZZorbKskgF+PlZ/YVHUMjFDjb1rXsbHM9nKd6D3drtzWR8PAucu6YttjVQqv6RQ9ldrBk+Wtxe2r0km4irX9j5WqSyhbC9XKos/xXSGtEDlXfZIRcXmtplARp1UztI2WNp9qbLU1rzf+IhYk2CLbHkGqvOksjhwGemlylKQDC6L+2dErbpMRHrSOlZCGpIjmaheM5UlD4wdVnKHeE6iPY3mTTqkJ3kI5VLl9NewjqH+F1qTVLJqz7S5mUH7PIQy6vIzjHyAWdy/gk/0uA49DKTZjsejyEMoI+84o0hhFvcQJGlOVWyGyNAcaIy8hVBWlUV4ZnGPQYvCPkMl6AFAo8RGTp3KbF9Hi8q3ZOqtrZK00PadS93UmJtWi6+KyQQWQRK6VWKSFrLkkQpXwJidUQOk0bElZCozi3uMNep8GaLng439D74SFVWVL/z4xENmeoBSHOd1nqBXYIrtwgcuWp+xu6kqM4t7iIatUssMRRN+W4ONRHOAyk1nIW3sd7oLLiZzm/JmLZI2GvVQ+U6XlBBCCCGEEEIIIYQQQgghhBBCCCGEEEIIIYQQQgghhBBCCCGEEEIIIYQQQgghzzIa/Qc6VtB8VqwQFgAAAABJRU5ErkJggg==;" vertex="1" parent="1">
          <mxGeometry x="376" y="183" width="107.62" height="41" as="geometry" />
        </mxCell>
        <mxCell id="SHFAngRMwkovwHlTtLld-61" value="" style="shape=image;verticalLabelPosition=bottom;labelBackgroundColor=default;verticalAlign=top;aspect=fixed;imageAspect=0;image=data:image/png,iVBORw0KGgoAAAANSUhEUgAAAWUAAACJCAMAAADDqtnEAAAAAXNSR0IArs4c6QAAAARnQU1BAACxjwv8YQUAAABjUExURQAAAAAAAAAAAAAAAAAAAAAAAAAAAAAAAAAAAAAAAAAAAAAAAAAAAAAAAAAAAAAAAAAAAAAAAAAAAAAAAAAAAAAAAAAAAAAAAAAAAAAAAAAAAAAAAAAAAAAAAAAAAAAAAAAAAGZodN4AAAAgdFJOUwAIEBggKDA4QEhQWGBocHiAh4+Xn6evt7/Hz9ff5+/3v+H4wgAAAAlwSFlzAAAXEQAAFxEByibzPwAABNdJREFUeF7t3F172jgQhuGYQCCBJA5fcQsB//9fudK8g5GMvbs09tWDPPdJK1F6MCgjzcjkAQAAAAAAAAAAAH/Lqgw+qujNpzC4r7qx8ikMrSj3TZynPocxfCjIRx9iHGeL8tZHGMfRokxaHtfJokxaHtXEgkxaHtezRXnnI4zjzaJMTTKunUX5yUcYhx0xTj7AOLT57X2EcbxYlEnL41KBTVoeVxWDTFoeV2FdDNLyuJ5ikC9puXjdVPXh832iIYaimsTScvF26TV/PdtrGMo+RtXS8ky9OZnbixiIhTam5YVac+63XsUgphbTkJZXYRc8rVdvqrfrmpwxINUkT/bn5jHOvNtM/W4vYxDrGNHTw/xcn181UyhzbDTCEH7HiO6n4XDRpAgrU+rKR/g+1SSbEGtfyYEyM5etw1lYRIO1TwTb9gS+STVJXR8Knwg+bYYm3XCsJgkWPo4ONkNZMhyvRNIDRWEz52Rx43tUk9THNKRK1dR+w1lZROsXHxqlaja/4VhNUn9l2UGpOgv8xWRRlttqXZarNI+npqtyU1X7slzOfAaqSVrFtFJ1R4d5qiOeq8qbSE/e067eabcit0e6vs7v/NTVv03LeYxN/mRdUerZ0auzv/LDaaPLn5DrScvPFsLP5SKkDW/25++b2zo+bxaz6aLUzwNFuiktGHkt3Z2WFzHIx0urY2KFS3ZX+GqfQuWJ5vFXHJUa/HSq8q4djKgzLRe2UK+FymOMaVodql16PXZb3uncQX8eRfR/pGVLIx8+iGKSTt6nE2H6ccXGHne0kSKa71HdadkSQHqmCP8seZ/+o6wjHc6IFDZGKzDfozrTsorudGk+VVUSVDsQpg2nkKfpnbquFqeOD61vP8xs0ge3lJRpL3VT823pI6PGRvvbD3Ob7avmpna8oCTv5jVJtm512dp+nkv/si+OOqnYzSxuKKL5c4h6APRy0G0iZ3nk3P0tKi10HrTroZokD49StX/1b3u8xFUnj2aY0QfD4xs9dFedF2iaU5RDxI9+rii0KZ66vnlpBQuntj62abUWoaIcm3RFXNbNR7C0+br+vEm/6oXwjEwPlRKtAm1jc6dVsYxn4KSY837/7XLWO3iUv4dy7cFHLhQTV1lAl35FWG/zz0UbI53kHtroWgWaJ+Doq9Wln1qZHWSboA7Y9Dj76F6j/djFUtm6KwM/vPtraZh1jqPH2aOIv7CoLG8OZ3PbAHed9fLMl3Ny561tkXPc/f5lK9N1bPIToOzOVeqwVMpcb71Vk1BeD0yt0Wa5aw/1AYaiY3bTgLYs/uUDDMb6pU2tZ0UJvydmcLZ6m6rQOvis5e/aVVW+t9n1U3N0U/vUBy4kFb7XfZfYwM9Ow/YdiXNTZeuyKj91h1M17ea7xF8dldWHVux9+iCwkjy7jY2NJZ7kv0s8H//yv0dF3PzOSRVizbq0vWzPevU9E4pOdqmXrEw7U2QXslZ1X9t3FmR6dPdRv3PriffFjnH5Nas/8qK4zlW0cHVyF21uwaHa7HWRcl63FuqLuqWHqqouPWgeG7jLkyKbWN/2LCYqs68OpOV7zd92lRrLp2p72yk187LSY/1hRZcrekd/7PE/1+dsscgvqwAAAAAAAAAAAAAAAAAAAAAAAAAAAAAAAAAAP8jDwz8i1Jzia2sGwwAAAABJRU5ErkJggg==;" vertex="1" parent="1">
          <mxGeometry x="773" y="190" width="109.45" height="42" as="geometry" />
        </mxCell>
      </root>
    </mxGraphModel>
  </diagram>
</mxfile>
